<svg width="80" height="80" viewBox="0 0 80 80" fill="none" xmlns="http://www.w3.org/2000/svg">
<g filter="url(#filter0_d_4946_11)">
<rect x="4" y="2" width="72" height="72" rx="36" fill="#EC5C2E"/>
<path d="M51.6667 50.1667H52.1667V49.6667V26.3333V25.8333H51.6667H28.3333H27.8333V26.3333V49.6667V50.1667H28.3333H51.6667ZM28.3333 23.5H51.6667C52.4181 23.5 53.1388 23.7985 53.6701 24.3299C54.2015 24.8612 54.5 25.5819 54.5 26.3333V49.6667C54.5 50.4181 54.2015 51.1388 53.6701 51.6701C53.1388 52.2015 52.4181 52.5 51.6667 52.5H28.3333C27.5819 52.5 26.8612 52.2015 26.3299 51.6701C25.7985 51.1388 25.5 50.4181 25.5 49.6667V26.3333C25.5 25.5819 25.7985 24.8612 26.3299 24.3299C26.8612 23.7985 27.5819 23.5 28.3333 23.5ZM34.5 45.8333H32.1667V38.5H34.5V45.8333ZM41.1667 45.8333H38.8333V30.1667H41.1667V45.8333ZM47.8333 45.8333H45.5V35.1667H47.8333V45.8333Z" fill="white" stroke="white"/>
</g>
<defs>
<filter id="filter0_d_4946_11" x="0" y="0" width="80" height="80" filterUnits="userSpaceOnUse" color-interpolation-filters="sRGB">
<feFlood flood-opacity="0" result="BackgroundImageFix"/>
<feColorMatrix in="SourceAlpha" type="matrix" values="0 0 0 0 0 0 0 0 0 0 0 0 0 0 0 0 0 0 127 0" result="hardAlpha"/>
<feOffset dy="2"/>
<feGaussianBlur stdDeviation="2"/>
<feColorMatrix type="matrix" values="0 0 0 0 0 0 0 0 0 0 0 0 0 0 0 0 0 0 0.1 0"/>
<feBlend mode="normal" in2="BackgroundImageFix" result="effect1_dropShadow_4946_11"/>
<feBlend mode="normal" in="SourceGraphic" in2="effect1_dropShadow_4946_11" result="shape"/>
</filter>
</defs>
</svg>
