<svg width="80" height="80" viewBox="0 0 72 72" fill="none" xmlns="http://www.w3.org/2000/svg">
<rect width="72" height="72" rx="36" fill="#31A0FE"/>
<path d="M57.99 20.082L59.25 15.951C59.3653 15.5742 59.5536 15.2237 59.8043 14.9197C60.0549 14.6156 60.363 14.3639 60.711 14.179C61.0589 13.994 61.4399 13.8794 61.8321 13.8416C62.2244 13.8039 62.6202 13.8438 62.997 13.959C63.3739 14.0742 63.7243 14.2626 64.0284 14.5132C64.3324 14.7639 64.5841 15.072 64.7691 15.4199C64.954 15.7679 65.0687 16.1489 65.1064 16.5411C65.1442 16.9333 65.1043 17.3292 64.989 17.706L61.479 29.181C61.2464 29.9415 60.7214 30.5784 60.0194 30.952C59.3173 31.3255 58.4957 31.405 57.7351 31.173L46.26 27.663C45.8753 27.5547 45.5162 27.3707 45.2036 27.1216C44.891 26.8726 44.6313 26.5636 44.4398 26.2128C44.2483 25.8621 44.1288 25.4766 44.0883 25.0789C44.0479 24.6813 44.0872 24.2797 44.2042 23.8975C44.3211 23.5153 44.5132 23.1604 44.7692 22.8535C45.0252 22.5466 45.34 22.294 45.695 22.1104C46.05 21.9268 46.4381 21.816 46.8365 21.7846C47.2349 21.7531 47.6356 21.8015 48.015 21.927L53.031 23.46C50.8136 20.0967 47.7206 17.402 44.0852 15.6663C40.4498 13.9305 36.4098 13.2193 32.4002 13.6094C28.3906 13.9995 24.5634 15.4761 21.3308 17.88C18.0982 20.284 15.5826 23.5243 14.055 27.252L13.275 29.151C13.1332 29.5259 12.9177 29.8685 12.6412 30.1587C12.3647 30.4489 12.0329 30.6807 11.6653 30.8405C11.2977 31.0003 10.9018 31.0848 10.5011 31.089C10.1003 31.0933 9.7027 31.0172 9.33182 30.8652C8.96093 30.7133 8.62426 30.4885 8.34168 30.2043C8.05911 29.92 7.83635 29.5821 7.68657 29.2103C7.53679 28.8385 7.46303 28.4405 7.46964 28.0397C7.47625 27.639 7.56309 27.2436 7.72505 26.877L8.50505 24.978C10.4437 20.2478 13.6342 16.1351 17.7339 13.0813C21.8336 10.0275 26.6876 8.14801 31.7748 7.64469C36.862 7.14137 41.9902 8.03319 46.6089 10.2244C51.2275 12.4156 55.162 15.8234 57.99 20.082ZM11.424 51.921L10.443 55.854C10.3553 56.2441 10.1904 56.6126 9.95817 56.9381C9.72592 57.2635 9.43097 57.5392 9.09064 57.7491C8.75031 57.9589 8.37147 58.0986 7.97639 58.1599C7.58131 58.2212 7.17796 58.203 6.79004 58.1062C6.40212 58.0094 6.03746 57.8361 5.71748 57.5963C5.39751 57.3566 5.12868 57.0554 4.9268 56.7103C4.72491 56.3652 4.59404 55.9832 4.54188 55.5868C4.48972 55.1904 4.51731 54.7876 4.62305 54.402L7.52405 42.762C7.62192 42.3657 7.79965 41.9935 8.04636 41.6683C8.29306 41.343 8.60355 41.0715 8.95881 40.8705C9.31408 40.6694 9.70665 40.5429 10.1125 40.4988C10.5183 40.4547 10.9289 40.4939 11.319 40.614L22.803 43.476C23.5752 43.6686 24.2393 44.16 24.6491 44.8421C25.059 45.5243 25.1811 46.3413 24.9885 47.1135C24.796 47.8857 24.3046 48.5497 23.6224 48.9596C22.9403 49.3695 22.1232 49.4916 21.351 49.299L15.993 47.964C18.2836 51.4705 21.5213 54.2558 25.3307 55.9969C29.14 57.7379 33.3649 58.3633 37.5153 57.8005C41.6657 57.2378 45.5715 55.5099 48.7797 52.8173C51.9878 50.1248 54.367 46.5779 55.6411 42.588C55.8829 41.8298 56.4161 41.1986 57.1233 40.8335C57.4735 40.6527 57.8558 40.5427 58.2485 40.5096C58.6412 40.4766 59.0366 40.5212 59.412 40.641C59.7875 40.7608 60.1357 40.9533 60.4367 41.2076C60.7378 41.462 60.9858 41.7731 61.1665 42.1233C61.3473 42.4734 61.4574 42.8558 61.4904 43.2485C61.5235 43.6412 61.4788 44.0366 61.359 44.412C60.1101 48.3299 58.0178 51.9265 55.2293 54.9487C52.4409 57.971 49.024 60.3454 45.219 61.905C39.2905 64.3338 32.7109 64.6682 26.5667 62.853C20.4225 61.0378 15.0809 57.1816 11.424 51.921Z" fill="white"/>
</svg>
