<svg xmlns="http://www.w3.org/2000/svg" width="24" height="24" viewBox="0 0 24 24" fill="none">
  <g clip-path="url(#clip0_4927_908)">
    <path d="M3.86335 20.1244C2.76499 19.0635 1.88889 17.7946 1.28619 16.3915C0.683484 14.9885 0.366242 13.4794 0.352973 11.9525C0.339704 10.4255 0.630674 8.91119 1.2089 7.49788C1.78713 6.08457 2.64105 4.80058 3.72081 3.72081C4.80058 2.64105 6.08457 1.78713 7.49788 1.2089C8.91119 0.630674 10.4255 0.339704 11.9525 0.352973C13.4794 0.366242 14.9885 0.683484 16.3915 1.28619C17.7946 1.88889 19.0635 2.76499 20.1244 3.86335C22.2192 6.03228 23.3783 8.9372 23.3521 11.9525C23.3259 14.9677 22.1165 17.8521 19.9843 19.9843C17.8521 22.1165 14.9677 23.3259 11.9525 23.3521C8.9372 23.3783 6.03228 22.2192 3.86335 20.1244ZM19.1456 19.1456C21.0407 17.2504 22.1053 14.6801 22.1053 12C22.1053 9.31989 21.0407 6.74956 19.1456 4.85444C17.2504 2.95933 14.6801 1.89466 12 1.89466C9.31989 1.89466 6.74956 2.95933 4.85444 4.85444C2.95933 6.74956 1.89466 9.31989 1.89466 12C1.89466 14.6801 2.95933 17.2504 4.85444 19.1456C6.74956 21.0407 9.31989 22.1053 12 22.1053C14.6801 22.1053 17.2504 21.0407 19.1456 19.1456ZM8.9 15.991V8.00901L16.882 12L8.9 15.991Z" fill="#252B42" stroke="#252B42"/>
  </g>
  <defs>
    <clipPath id="clip0_4927_908">
      <rect width="24" height="24" fill="white"/>
    </clipPath>
  </defs>
</svg>