<svg xmlns="http://www.w3.org/2000/svg" width="64" height="64" viewBox="0 0 64 64" fill="none">
  <rect x="0.422241" y="0.666626" width="63.2" height="63.2" rx="31.6" fill="#C5E2F2"/>
  <path d="M27.9213 35.6822L40.9942 22.6093C41.4004 22.2031 41.9174 22 42.5452 22C43.173 22 43.69 22.2031 44.0962 22.6093C44.5024 23.0155 44.7055 23.5326 44.7055 24.1603C44.7055 24.7881 44.5024 25.3052 44.0962 25.7114L29.4723 40.3353C29.0292 40.7784 28.5121 41 27.9213 41C27.3304 41 26.8134 40.7784 26.3703 40.3353L20.6093 34.5743C20.2031 34.1681 20 33.6511 20 33.0233C20 32.3955 20.2031 31.8785 20.6093 31.4723C21.0155 31.0661 21.5326 30.863 22.1604 30.863C22.7881 30.863 23.3052 31.0661 23.7114 31.4723L27.9213 35.6822Z" fill="#252B42"/>
</svg>