<svg xmlns="http://www.w3.org/2000/svg" width="64" height="64" viewBox="0 0 64 64" fill="none">
  <rect x="0.422241" y="0.666748" width="63.2" height="63.2" rx="31.6" fill="#CBEAC1"/>
  <path d="M21.062 21.6131C20.7276 20.574 21.8095 19.6458 22.7862 20.1337L43.3173 30.3976C44.2258 30.8519 44.2258 32.1473 43.3173 32.6024L22.7862 42.8663C21.8103 43.3542 20.7276 42.426 21.062 41.3869L24.2426 31.5L21.062 21.6131ZM25.7031 32.3214L22.9258 40.9597L41.8494 31.5L22.925 22.0403L25.7048 30.6777H34.9624C35.1803 30.6777 35.3892 30.7643 35.5433 30.9183C35.6973 31.0724 35.7839 31.2813 35.7839 31.4992C35.7839 31.717 35.6973 31.926 35.5433 32.08C35.3892 32.2341 35.1803 32.3206 34.9624 32.3206H25.7048L25.7031 32.3214Z" fill="#165949"/>
</svg>