<svg xmlns="http://www.w3.org/2000/svg" width="64" height="64" viewBox="0 0 64 64" fill="none">
  <rect x="0.422241" y="0.666748" width="63.2" height="63.2" rx="31.6" fill="#F0D1C6"/>
  <path fill-rule="evenodd" clip-rule="evenodd" d="M32 19.2C29.7612 19.1996 27.5615 19.7864 25.6204 20.9018C23.6792 22.0172 22.0646 23.6223 20.9376 25.5567C19.8107 27.4912 19.2108 29.6874 19.1979 31.9261C19.185 34.1649 19.7595 36.3678 20.864 38.3152C21.6106 37.3449 22.5703 36.5593 23.6689 36.0191C24.7676 35.479 25.9757 35.1987 27.2 35.2H36.8C38.0243 35.1987 39.2324 35.479 40.3311 36.0191C41.4297 36.5593 42.3894 37.3449 43.136 38.3152C44.2405 36.3678 44.815 34.1649 44.8021 31.9261C44.7892 29.6874 44.1893 27.4912 43.0624 25.5567C41.9354 23.6223 40.3208 22.0172 38.3796 20.9018C36.4385 19.7864 34.2388 19.1996 32 19.2ZM44.7088 41.7216C46.848 38.9327 48.0051 35.5148 48 32C48 23.1632 40.8368 16 32 16C23.1632 16 16 23.1632 16 32C15.9947 35.5148 17.1519 38.9328 19.2912 41.7216L19.2832 41.7504L19.8512 42.4112C21.3518 44.1656 23.215 45.5738 25.3124 46.5386C27.4097 47.5034 29.6914 48.002 32 48C35.2437 48.0059 38.4118 47.0206 41.08 45.176C42.2175 44.3901 43.2489 43.4608 44.1488 42.4112L44.7168 41.7504L44.7088 41.7216ZM32 22.4C30.727 22.4 29.5061 22.9057 28.6059 23.8059C27.7057 24.7061 27.2 25.927 27.2 27.2C27.2 28.473 27.7057 29.6939 28.6059 30.5941C29.5061 31.4943 30.727 32 32 32C33.273 32 34.4939 31.4943 35.3941 30.5941C36.2943 29.6939 36.8 28.473 36.8 27.2C36.8 25.927 36.2943 24.7061 35.3941 23.8059C34.4939 22.9057 33.273 22.4 32 22.4Z" fill="#E77C40"/>
</svg>