<svg width="15" height="14" viewBox="0 0 15 14" fill="none" xmlns="http://www.w3.org/2000/svg">
<g clip-path="url(#clip0_4796_10211)">
<path fill-rule="evenodd" clip-rule="evenodd" d="M14.4139 2.61728C13.9056 2.84294 13.3593 2.99491 12.786 3.06342C13.3714 2.71284 13.821 2.15733 14.0323 1.49532C13.4848 1.81999 12.8781 2.05601 12.2322 2.18323C11.7158 1.63233 10.9784 1.28809 10.1633 1.28809C8.33326 1.28809 6.98852 2.99549 7.40185 4.76794C5.04683 4.64993 2.95834 3.52164 1.56007 1.80675C0.81747 3.08068 1.17495 4.74721 2.4368 5.59113C1.97282 5.57616 1.53532 5.44894 1.15365 5.23652C1.12257 6.5496 2.06377 7.77805 3.42693 8.05149C3.028 8.15971 2.59107 8.18504 2.14666 8.09985C2.50703 9.22583 3.55357 10.045 4.79469 10.068C3.60308 11.0023 2.10176 11.4197 0.598145 11.2424C1.8525 12.0466 3.34288 12.5157 4.94321 12.5157C10.2059 12.5157 13.1791 8.07106 12.9995 4.08463C13.5533 3.68455 14.034 3.18545 14.4139 2.61728Z" fill="#111827"/>
</g>
<defs>
<clipPath id="clip0_4796_10211">
<rect width="13.8158" height="13.8158" fill="white" transform="translate(0.598267 -0.00585938)"/>
</clipPath>
</defs>
</svg>
